<svg width="721" height="47" viewBox="0 0 721 47" fill="none" xmlns="http://www.w3.org/2000/svg">
<path d="M34.4688 0.875V2.75H11.75C7.41667 2.83333 4.6875 5.14583 3.5625 9.6875C2.4375 14.2292 5.41667 19.7917 12.5 26.375C17.75 31.5417 16.4167 34.2292 8.5 34.4375H0.875V32.5625H8.5C14.3958 32.7292 15.1458 31.0833 10.75 27.625C3.5 20.9583 0.416667 14.8333 1.5 9.25C2.58333 3.66667 6 0.875 11.75 0.875H34.4688ZM34.4688 14.3125H25.375C20.0208 14.1458 19.2292 15.625 23 18.75C29.75 24.6667 33.0625 30.4167 32.9375 36C32.8125 41.5833 29.5 44.9167 23 46H0.875V44.125H23C28.5 42.9583 31.1667 39.9583 31 35.125C30.8333 30.2917 27.1667 24.8333 20 18.75C16.6667 14.4167 18.4583 12.3125 25.375 12.4375H34.4688V14.3125ZM48.8125 44.125H59.75V12.4375H74.0625V14.3125H61.625V46H46.9375V14.3125H34.5V12.4375H48.8125V44.125ZM34.5 0.875L74.0625 0.90625V2.75H34.5V0.875ZM75.9375 44.125H87.5L90.375 36H106.25L109.125 44.125H120.688V46H107.875L105 37.875H91.625L88.75 46H75.9375V44.125ZM120.312 32.5625H120.688V34.4375H118.812L108.625 2.75H88.9375L77.875 34.4375H75.9375V32.5625H76.3125L87.375 0.875H110.188L120.312 32.5625ZM98.6562 10.2188L105.062 28.75H91.75L98.6562 10.2188ZM94.6875 26.875H102.125L98.6875 16.8125L94.6875 26.875ZM122.562 2.75V0.875H151.938C155.562 1.20833 158.469 2.10417 160.656 3.5625C162.844 5.02083 164.333 6.42708 165.125 7.78125C165.917 9.13542 166.479 10.7917 166.812 12.75C167.146 14.7083 166.927 16.8438 166.156 19.1562C165.385 21.4688 164.062 23.3542 162.188 24.8125C160.312 26.2708 157.625 27.4167 154.125 28.25L157.5 32.5625H169.125V34.4375H156.406L152.25 29.3438V26.7188C156.542 25.8438 159.469 24.75 161.031 23.4375C162.615 22.125 163.729 20.5208 164.375 18.625C165.042 16.7292 165.25 14.9167 165 13.1875C164.771 11.4583 164.323 10.0312 163.656 8.90625C163.01 7.76042 161.698 6.52083 159.719 5.1875C157.74 3.85417 155.146 3.04167 151.938 2.75H122.562ZM138.094 11.3438H150.719C151.281 11.3438 151.969 11.6771 152.781 12.3438C153.594 12.9896 154.073 14.3438 154.219 16.4062C154.135 18.5521 153.698 19.8958 152.906 20.4375C152.135 20.9792 151.417 21.25 150.75 21.25H138.094V11.3438ZM140.031 13.1562V19.5312H149.688C150.188 19.5312 150.74 19.3646 151.344 19.0312C151.969 18.6771 152.302 17.7917 152.344 16.375C152.24 15.0833 151.865 14.2292 151.219 13.8125C150.594 13.375 150.073 13.1562 149.656 13.1562H140.031ZM122.562 44.125H137V29.2188H140.031L154.281 44.125H169.125V46H153.188L138.875 31.0938V46H122.562V44.125ZM124.438 12.4375V34.4375H122.562V12.4375H124.438ZM171 2.75V0.875H182.188L188.375 20.375L193.75 0.875H207.25L213.531 20.375L217.719 0.875H229.5V2.75H219.219L214.594 22.25H212.5L205.969 2.75H195.344L189.719 22.25H187.031L180.844 2.75H171ZM227.625 12.4375H229.5V14.3125H229.125L221.094 46H206.406L200.688 26.875L195.938 46H181.25L171.375 14.3125H171V12.4375H172.875L182.812 44.125H194.5L199.438 25.0312H202L207.844 44.125H219.719L227.625 12.4375ZM231.375 44.125H242.938L245.812 36H261.688L264.562 44.125H276.125V46H263.312L260.438 37.875H247.062L244.188 46H231.375V44.125ZM275.75 32.5625H276.125V34.4375H274.25L264.062 2.75H244.375L233.312 34.4375H231.375V32.5625H231.75L242.812 0.875H265.625L275.75 32.5625ZM254.094 10.2188L260.5 28.75H247.188L254.094 10.2188ZM250.125 26.875H257.562L254.125 16.8125L250.125 26.875ZM278 2.75V0.875H307.375C311 1.20833 313.906 2.10417 316.094 3.5625C318.281 5.02083 319.771 6.42708 320.562 7.78125C321.354 9.13542 321.917 10.7917 322.25 12.75C322.583 14.7083 322.365 16.8438 321.594 19.1562C320.823 21.4688 319.5 23.3542 317.625 24.8125C315.75 26.2708 313.062 27.4167 309.562 28.25L312.938 32.5625H324.562V34.4375H311.844L307.688 29.3438V26.7188C311.979 25.8438 314.906 24.75 316.469 23.4375C318.052 22.125 319.167 20.5208 319.812 18.625C320.479 16.7292 320.688 14.9167 320.438 13.1875C320.208 11.4583 319.76 10.0312 319.094 8.90625C318.448 7.76042 317.135 6.52083 315.156 5.1875C313.177 3.85417 310.583 3.04167 307.375 2.75H278ZM293.531 11.3438H306.156C306.719 11.3438 307.406 11.6771 308.219 12.3438C309.031 12.9896 309.51 14.3438 309.656 16.4062C309.573 18.5521 309.135 19.8958 308.344 20.4375C307.573 20.9792 306.854 21.25 306.188 21.25H293.531V11.3438ZM295.469 13.1562V19.5312H305.125C305.625 19.5312 306.177 19.3646 306.781 19.0312C307.406 18.6771 307.74 17.7917 307.781 16.375C307.677 15.0833 307.302 14.2292 306.656 13.8125C306.031 13.375 305.51 13.1562 305.094 13.1562H295.469ZM278 44.125H292.438V29.2188H295.469L309.719 44.125H324.562V46H308.625L294.312 31.0938V46H278V44.125ZM279.875 12.4375V34.4375H278V12.4375H279.875ZM360.031 0.875V2.75H337.312C332.979 2.83333 330.25 5.14583 329.125 9.6875C328 14.2292 330.979 19.7917 338.062 26.375C343.312 31.5417 341.979 34.2292 334.062 34.4375H326.438V32.5625H334.062C339.958 32.7292 340.708 31.0833 336.312 27.625C329.062 20.9583 325.979 14.8333 327.062 9.25C328.146 3.66667 331.562 0.875 337.312 0.875H360.031ZM360.031 14.3125H350.938C345.583 14.1458 344.792 15.625 348.562 18.75C355.312 24.6667 358.625 30.4167 358.5 36C358.375 41.5833 355.062 44.9167 348.562 46H326.438V44.125H348.562C354.062 42.9583 356.729 39.9583 356.562 35.125C356.396 30.2917 352.729 24.8333 345.562 18.75C342.229 14.4167 344.021 12.3125 350.938 12.4375H360.031V14.3125Z" fill="#8F8740"/>
<path d="M376.125 11.1875H385.562C387.75 11.1875 389.521 11.625 390.875 12.5C392.229 13.3542 393.333 14.5521 394.188 16.0938C395.062 17.6354 395.542 20.0208 395.625 23.25C395.375 26.7708 394.833 29.2188 394 30.5938C393.188 31.9479 392.125 33.0625 390.812 33.9375C389.5 34.8125 387.771 35.25 385.625 35.25H376.125V11.1875ZM361.938 44.125H387.812C392.812 44 396.385 43.5104 398.531 42.6562C400.677 41.8021 402.458 40.7188 403.875 39.4062C405.292 38.0938 406.604 36.1562 407.812 33.5938C409.021 31.0312 409.688 27.6458 409.812 23.4375C409.646 19.3958 409.344 16.7812 408.906 15.5938C408.469 14.4062 407.906 13.1354 407.219 11.7812C406.531 10.4271 405.458 9.04167 404 7.625C402.542 6.20833 400.51 5.02083 397.906 4.0625C395.302 3.10417 392.188 2.66667 388.562 2.75H361.938V0.875H388.562C392.167 0.875 395.354 1.32292 398.125 2.21875C400.917 3.11458 403.24 4.40625 405.094 6.09375C406.969 7.78125 408.531 10.0104 409.781 12.7812C411.052 15.5521 411.688 19.1042 411.688 23.4375C411.458 27.6458 410.771 31.1875 409.625 34.0625C408.479 36.9375 406.958 39.2083 405.062 40.875C403.167 42.5417 400.844 43.8333 398.094 44.75C395.365 45.6667 391.938 46.0833 387.812 46H361.938V44.125ZM378 13.0625L378.031 33.375H385.625C387.771 33.3125 389.344 32.8854 390.344 32.0938C391.344 31.3021 392.094 30.4479 392.594 29.5312C393.115 28.6146 393.5 26.5208 393.75 23.25C393.562 20.5 393.188 18.5417 392.625 17.375C392.062 16.1875 391.26 15.1875 390.219 14.375C389.198 13.5417 387.646 13.1042 385.562 13.0625H378ZM361.938 34.4375V12.4375H363.812V34.4375H361.938ZM413.875 44.125H425.438L428.312 36H444.188L447.062 44.125H458.625V46H445.812L442.938 37.875H429.562L426.688 46H413.875V44.125ZM458.25 32.5625H458.625V34.4375H456.75L446.562 2.75H426.875L415.812 34.4375H413.875V32.5625H414.25L425.312 0.875H448.125L458.25 32.5625ZM436.594 10.2188L443 28.75H429.688L436.594 10.2188ZM432.625 26.875H440.062L436.625 16.8125L432.625 26.875ZM472.938 44.125H483.875V12.4375H498.188V14.3125H485.75V46H471.062V14.3125H458.625V12.4375H472.938V44.125ZM458.625 0.875L498.188 0.90625V2.75H458.625V0.875ZM500.062 44.125H511.625L514.5 36H530.375L533.25 44.125H544.812V46H532L529.125 37.875H515.75L512.875 46H500.062V44.125ZM544.438 32.5625H544.812V34.4375H542.938L532.75 2.75H513.062L502 34.4375H500.062V32.5625H500.438L511.5 0.875H534.312L544.438 32.5625ZM522.781 10.2188L529.188 28.75H515.875L522.781 10.2188ZM518.812 26.875H526.25L522.812 16.8125L518.812 26.875ZM561.125 11.0312H571.156C573.052 11.0521 574.615 11.4167 575.844 12.125C577.094 12.8333 577.688 13.875 577.625 15.25C577.625 16.4375 576.99 17.4271 575.719 18.2188C574.469 19.0104 572.948 19.3958 571.156 19.375H561.125V11.0312ZM563 12.9062V17.5H571.156C572.802 17.375 573.917 17.1667 574.5 16.875C575.104 16.5625 575.521 16.0208 575.75 15.25C575.729 14.4583 575.385 13.8958 574.719 13.5625C574.073 13.2083 572.906 12.9896 571.219 12.9062H563ZM546.688 2.75V0.875H577.469C582.406 0.916667 586.156 1.77083 588.719 3.4375C591.302 5.10417 592.865 7.89583 593.406 11.8125C593.594 14.8125 592.958 17.1667 591.5 18.875C590.042 20.5833 587.635 21.9896 584.281 23.0938V23.2188C585.927 23.4271 587.448 23.875 588.844 24.5625C590.24 25.2292 591.406 26.0312 592.344 26.9688C593.302 27.8854 594.042 28.9271 594.562 30.0938C595.083 31.2604 595.344 32.4062 595.344 33.5312C595.344 37.0938 594.427 39.7917 592.594 41.625C590.781 43.4583 588.438 44.6562 585.562 45.2188C582.708 45.7812 579.24 46.0417 575.156 46H546.688V44.125H575.156C579.177 44.2083 582.542 43.9792 585.25 43.4375C587.979 42.8958 590.052 41.8125 591.469 40.1875C592.885 38.5417 593.552 36.3229 593.469 33.5312C593.469 32.4271 593.229 31.4062 592.75 30.4688C592.271 29.5312 591.656 28.6979 590.906 27.9688C590.156 27.2396 589.188 26.5833 588 26C586.812 25.3958 584.844 24.8021 582.094 24.2188V22.1875C585.656 21.1875 588.167 19.9271 589.625 18.4062C591.104 16.8854 591.74 14.6875 591.531 11.8125C591.073 8.52083 589.729 6.20833 587.5 4.875C585.271 3.52083 581.927 2.8125 577.469 2.75H546.688ZM561.125 27.5H572.969C575.281 27.4167 577.177 27.8646 578.656 28.8438C580.135 29.8229 580.792 31.125 580.625 32.75C580.667 34.25 579.948 35.5 578.469 36.5C576.99 37.5 575.156 37.9688 572.969 37.9062H561.125V27.5ZM563 29.375V36H572.969C575.156 35.9583 576.635 35.6667 577.406 35.125C578.177 34.5833 578.625 33.7917 578.75 32.75C578.771 31.625 578.354 30.7917 577.5 30.25C576.667 29.7083 575.156 29.4167 572.969 29.375H563ZM548.562 12.4375V34.4375H546.688V12.4375H548.562ZM597.562 44.125H609.125L612 36H627.875L630.75 44.125H642.312V46H629.5L626.625 37.875H613.25L610.375 46H597.562V44.125ZM641.938 32.5625H642.312V34.4375H640.438L630.25 2.75H610.562L599.5 34.4375H597.562V32.5625H597.938L609 0.875H631.812L641.938 32.5625ZM620.281 10.2188L626.688 28.75H613.375L620.281 10.2188ZM616.312 26.875H623.75L620.312 16.8125L616.312 26.875ZM677.781 0.875V2.75H655.062C650.729 2.83333 648 5.14583 646.875 9.6875C645.75 14.2292 648.729 19.7917 655.812 26.375C661.062 31.5417 659.729 34.2292 651.812 34.4375H644.188V32.5625H651.812C657.708 32.7292 658.458 31.0833 654.062 27.625C646.812 20.9583 643.729 14.8333 644.812 9.25C645.896 3.66667 649.312 0.875 655.062 0.875H677.781ZM677.781 14.3125H668.688C663.333 14.1458 662.542 15.625 666.312 18.75C673.062 24.6667 676.375 30.4167 676.25 36C676.125 41.5833 672.812 44.9167 666.312 46H644.188V44.125H666.312C671.812 42.9583 674.479 39.9583 674.312 35.125C674.146 30.2917 670.479 24.8333 663.312 18.75C659.979 14.4167 661.771 12.3125 668.688 12.4375H677.781V14.3125ZM679.688 2.75V0.875H718.438V2.75H679.688ZM681.562 34.4375H679.688V12.4375H681.562V34.4375ZM718.438 12.4375V14.3125H694.375V19.5H709.875V27.375H694.375V32.5625H720.312V34.4375H692.5V25.5625H708V21.375H692.5V12.4375H718.438ZM720.312 44.125V46H679.688V44.125H720.312Z" fill="#B6B785"/>
</svg>
